<?xml version="1.0" encoding="UTF-8"?>
<svg xmlns="http://www.w3.org/2000/svg" xmlns:xlink="http://www.w3.org/1999/xlink" width="217px" height="228px" viewBox="0 0 217 228" version="1.1" aria-labelledby="svgTitle svgDesc" role="img">
  <title id="svgTitle">Morningstar Overall Rating Seal—Five Stars</title>
  <desc id="svgDesc">Morningstar Overall Rating Seal—Five Stars</desc>
  <g id="5Star_Seal_OverallRating" stroke="none" stroke-width="1" fill="none" fill-rule="evenodd">
    <rect fill="#FFFFFF" x="0" y="0" width="217" height="228"></rect>
    <g transform="translate(0.000000, 0.000000)" fill-rule="nonzero">
      <g id="Group" transform="translate(199.860291, 219.366211)" fill="#EF3E42">
        <polygon id="Path" points="6.072296 0.578094 3.456116 0.578094 3.456116 8.583984 2.617218 8.583984 2.617218 0.578094 0 0.578094 0 5.68434189e-14 6.072296 5.68434189e-14 6.072296 0.578094"></polygon>
        <path d="M7.854522,0.630798 L7.813506,0.630798 C7.854522,2.02539 7.855498,4.660095 7.855498,8.583984 L7.06552,8.583984 L7.06552,1.13686838e-13 L8.363311,1.13686838e-13 C10.018615,3.839783 11.114318,6.335876 11.671905,7.74408 L11.706115,7.74408 C12.269622,6.330079 13.361419,3.816376 15.022521,1.13686838e-13 L16.31552,1.13686838e-13 L16.31552,8.583984 L15.523497,8.583984 C15.523497,4.665985 15.527434,2.023376 15.560606,0.630798 L15.519621,0.630798 C14.949309,2.0195 13.825194,4.599579 12.081114,8.583984 L11.282316,8.583984" id="Path"></path>
      </g>
      <rect id="Rectangle" fill="#EF3E42" x="-2.84217094e-14" y="0" width="216" height="216"></rect>
      <g id="Group" transform="translate(8.726608, 139.440399)" fill="#FFFFFF">
        <polygon id="Path" points="24.337799 14.261688 39.6035 14.261688 27.300689 23.483398 32.076095 38.117187 19.828109 29.105499 7.580993 38.117187 12.409103 23.483398 0 14.261688 15.21669 14.261688 19.82811 0"></polygon>
        <polygon id="Path" points="64.148392 14.261688 79.414994 14.261688 67.117112 23.483398 71.887589 38.117187 59.642502 29.105499 47.395493 38.117187 52.219696 23.483398 39.814392 14.261688 55.031189 14.261688 59.642502 0"></polygon>
        <polygon id="Path" points="103.959885 14.261688 119.223587 14.261688 106.927689 23.483398 111.696183 38.117187 99.451096 29.105499 87.206986 38.117187 92.030198 23.483398 79.624009 14.261688 94.842698 14.261688 99.451096 0"></polygon>
        <polygon id="Path" points="143.770493 14.261688 159.038987 14.261688 146.736283 23.483398 151.50969 38.117187 139.262589 29.105499 127.016587 38.117187 131.842698 23.483398 119.435502 14.261688 134.651292 14.261688 139.26259 0"></polygon>
        <polygon id="Path" points="183.580002 14.261688 198.850479 14.261688 186.549789 23.483398 191.323196 38.117187 179.076095 29.105499 166.831985 38.117187 171.653305 23.483398 159.249985 14.261688 174.463791 14.261688 179.076096 0"></polygon>
      </g>
      <g id="Group" transform="translate(10.845718, 88.789002)" fill="#FFFFFF">
        <rect id="Rectangle" x="104.398392" y="1.230498" width="3.7461" height="41.202198"></rect>
        <polygon id="Path" points="156.012681 1.230498 167.970688 1.230498 167.970688 4.664092 163.906174 4.664092 163.906174 42.432708 160.14058 42.432708 160.14058 4.664092 156.012681 4.664092"></polygon>
        <polygon id="Path" points="100.97258 1.230498 100.97258 42.432708 97.047776 42.432708 91.434586 17.40631 91.434586 42.432708 87.753891 42.432708 87.753891 1.230498 91.14058 1.230498 97.289994 28.517577 97.289994 1.230498"></polygon>
        <polygon id="Path" points="19.473587 1.230498 19.473587 42.432708 15.790986 42.432708 15.790986 7.114287 11.246094 42.432708 8.178681 42.432708 3.709 7.114287 3.709 42.432708 2.84217094e-14 42.432708 2.84217094e-14 1.230498 6.272492 1.230498 9.861283 26.066405 13.248993 1.230498"></polygon>
        <path d="M65.122086,42.442412 C68.037095,38.486388 69.759781,33.600585 69.759781,28.308592 C69.759781,15.138701 59.081986,4.462004 45.914093,4.462004 C32.74408,4.462004 22.066391,15.138701 22.066391,28.308592 C22.066391,33.596708 23.787094,38.48831 26.698181,42.442412 L31.658188,42.442412 C28.057587,38.812499 25.832993,33.826201 25.832993,28.308592 C25.832993,17.217802 34.823182,8.227598 45.914093,8.227598 C57.002884,8.227598 65.994095,17.217802 65.994095,28.308592 C65.994095,33.817412 63.773392,38.812498 60.179688,42.442412 L65.122086,42.442412 Z" id="Path"></path>
        <path d="M181.539994,42.432708 L177.876878,42.432708 L176.909196,33.151397 L171.425798,33.151397 L170.531175,42.432708 L166.794877,42.432708 L171.01558,1.230499 L176.73137,1.230499 L181.539994,42.432708 Z M176.568375,29.426787 L174.07518,6.712889 L171.776382,29.426787 L176.568375,29.426787 Z" id="Shape"></path>
        <path d="M136.76558,37.195311 C136.76558,39.054686 135.67479,40.002013 134.42479,40.002013 C133.17479,40.002013 132.082993,39.054686 132.082993,37.195311 L132.082993,6.077208 C132.082993,4.223692 133.17479,3.274504 134.42479,3.274504 C135.67479,3.274504 136.76558,4.223692 136.76558,6.077208 L136.758775,7.567412 L136.758775,15.333006 L140.527299,15.333006 L140.527299,9.345701 L140.516587,7.615293 C140.491196,2.480497 138.483384,0.033201 134.2939,0.033201 C130.561478,0.033201 128.132798,2.6817 128.132798,6.742185 L128.135697,8.256894 L128.135697,34.045895 L128.132798,35.712887 C128.132798,40.990292 130.183579,43.56741 134.384782,43.56741 C138.573198,43.56741 140.527299,41.036191 140.527299,35.604489 L140.527299,20.614285 L133.605485,20.614285 L133.605485,24.223691 L136.758775,24.223691 L136.758775,35.828183 L136.76558,37.195311 Z" id="Path"></path>
        <path d="M152.213883,36.204101 L152.213883,25.494201 L143.625992,19.082092 L143.625992,7.111389 C143.625992,2.407287 145.745072,0 149.891586,0 C154.098587,0 156.01268,2.388702 156.042007,7.675812 L156.052689,9.31839 L156.052689,15.38971 L152.213882,15.38971 L152.213882,7.248108 L152.203079,6.07721 C152.203079,4.223694 151.124985,3.274506 149.88768,3.274506 C148.648392,3.274506 147.568375,4.223694 147.568375,6.07721 L147.568375,7.285187 L147.568375,17.295899 L156.052689,23.69629 L156.052689,36.087892 C156.052689,40.931703 153.895493,43.5235 149.867173,43.5235 C145.785081,43.5235 143.662095,41.078188 143.636674,36.354494 L143.625992,34.724581 L143.625992,26.662112 L147.568376,26.662112 L147.568376,36.108401 L147.568376,37.195315 C147.568376,39.05469 148.648393,40.002017 149.887681,40.002017 C151.124986,40.002017 152.20308,39.05469 152.20308,37.195315 L152.213883,36.204101 Z" id="Path"></path>
        <path d="M85.473587,42.432708 L81.719681,42.432708 C81.205979,41.045013 80.980484,39.742187 80.956986,37.999999 L80.926774,35.890685 L80.913072,34.825194 L80.913072,26.783202 C80.913072,25.092803 79.884782,24.323302 78.700181,24.323302 L76.021501,24.323302 L76.021501,42.432708 L72.344682,42.432708 L72.344682,1.230499 L77.14348,1.230499 C82.532182,1.230499 84.606401,3.201202 84.606401,8.476593 L84.606401,16.209015 C84.606401,19.673889 84.029283,21.13089 81.316392,22.128906 C81.354478,22.143585 81.392594,22.158203 81.429673,22.169006 C83.991196,22.916992 84.565385,23.888702 84.593674,27.13681 L84.6064,28.632812 L84.6064,36.156311 C84.6064,38.896514 84.813492,40.381896 85.473587,42.432708 Z M76.0215,4.474578 L76.0215,20.790099 L77.343674,20.790099 C79.770493,20.790099 80.913071,19.677794 80.913071,17.310607 L80.913071,8.915099 C80.913071,5.534209 80.128891,4.474578 77.625992,4.474578 L76.0215,4.474578 Z" id="Shape"></path>
        <path d="M195.649369,42.432708 L191.895493,42.432708 C191.378891,41.045013 191.156174,39.742187 191.130875,37.999999 L191.101578,35.890685 L191.090775,34.825194 L191.090775,26.783202 C191.090775,25.092803 190.060471,24.323302 188.871079,24.323302 L186.196274,24.323302 L186.196274,42.432708 L182.518479,42.432708 L182.518479,1.230499 L187.316392,1.230499 C192.710893,1.230499 194.784196,3.201202 194.784196,8.476593 L194.784196,16.209015 C194.784196,19.673889 194.20308,21.13089 191.492173,22.128906 C191.527299,22.143585 191.567399,22.158203 191.605485,22.169006 C194.163072,22.916992 194.742173,23.888702 194.769486,27.13681 L194.784195,28.632812 L194.784195,36.156311 C194.784195,38.896514 194.990189,40.381896 195.649369,42.432708 Z M186.196274,4.474578 L186.196274,20.790099 L187.521469,20.790099 C189.948196,20.790099 191.090774,19.677794 191.090774,17.310607 L191.090774,8.915099 C191.090774,5.534209 190.307571,4.474578 187.799789,4.474578 L186.196274,4.474578 Z" id="Shape"></path>
        <polygon id="Path" points="124.733384 1.230498 124.733384 42.432708 120.808579 42.432708 115.199173 17.40631 115.199173 42.432708 111.516587 42.432708 111.516587 1.230498 114.905289 1.230498 121.051774 28.517577 121.051774 1.230498"></polygon>
      </g>
    </g>
  </g>
</svg>
