<svg width="1569" height="1296" xmlns="http://www.w3.org/2000/svg" xmlns:xlink="http://www.w3.org/1999/xlink" overflow="hidden"><defs><clipPath id="clip0"><rect x="1437" y="703" width="1569" height="1296"/></clipPath></defs><g clip-path="url(#clip0)" transform="translate(-1437 -703)"><rect x="1437" y="833" width="764" height="405" fill="#9AD3B4"/><text fill="#012537" font-family="Georgia,Georgia_MSFontService,sans-serif" font-weight="400" font-size="64" transform="matrix(1 0 0 1 1512.37 982)">Anchored by a core of <tspan font-size="64" x="20.923" y="77">actively traded fixed </tspan><tspan font-size="64" x="51.5625" y="154">income securities.</tspan></text><rect x="1437" y="707" width="763" height="126" fill="#38A66B"/><text fill="#012537" font-family="Arial,Arial_MSFontService,sans-serif" font-weight="700" font-size="73" transform="matrix(1 0 0 1 1584.33 797)">Fixed Income</text><rect x="2242" y="832" width="763" height="405" fill="#D1E0F4"/><text fill="#012537" font-family="Georgia,Georgia_MSFontService,sans-serif" font-weight="400" font-size="64" transform="matrix(1 0 0 1 2409.8 942)">Seeking capital <tspan font-size="64" x="-85.9375" y="77">appreciation through </tspan><tspan font-size="64" x="-89.0772" y="154">equity</tspan><tspan font-size="64" x="87.3814" y="154">-</tspan><tspan font-size="64" x="111.444" y="154">linked options </tspan><tspan font-size="64" x="101.979" y="231">overlay.</tspan></text><rect x="2242" y="709" width="763" height="127" fill="#012537"/><text fill="#FFFFFF" font-family="Arial,Arial_MSFontService,sans-serif" font-weight="700" font-size="73" transform="matrix(1 0 0 1 2339.63 799)">Options Overlay</text><rect x="1437" y="1594" width="1567" height="405" fill="#FFF5D6"/><text fill="#012537" font-family="Georgia,Georgia_MSFontService,sans-serif" font-weight="400" font-size="55" transform="matrix(1 0 0 1 1499.76 1717)">Rebalancing of fixed income and options overlay as needed, <tspan font-size="55" x="24.0625" y="66">based on our proprietary algorithm. These three elements </tspan><tspan font-size="55" x="56.1459" y="132">combined enables a repeatable and smooth investment </tspan><tspan font-size="55" x="583.229" y="198">experience.</tspan></text><path d="M3004 1236 2622.5 1362 2241 1236Z" fill="#D1E0F4" fill-rule="evenodd"/><path d="M1437 1476 2221.5 1350 3006 1476Z" fill="#FFCE34" fill-rule="evenodd"/><rect x="1437" y="1475" width="1569" height="126" fill="#FFCE34"/><path d="M2200 1238 1818.5 1364 1437 1238Z" fill="#9AD3B4" fill-rule="evenodd"/><text fill="#012537" font-family="Arial,Arial_MSFontService,sans-serif" font-weight="700" font-size="73" transform="matrix(1 0 0 1 1802.55 1555)">Quantitative Framework</text></g></svg>