<svg width="2049" height="1566" xmlns="http://www.w3.org/2000/svg" xmlns:xlink="http://www.w3.org/1999/xlink" xml:space="preserve" overflow="hidden"><defs><clipPath id="clip0"><rect x="212" y="810" width="2049" height="1566"/></clipPath></defs><g clip-path="url(#clip0)" transform="translate(-212 -810)"><g><path d="M489.5 1967.56 2185.5 1967.56M489.5 1775.56 2185.5 1775.56M489.5 1583.55 2185.5 1583.55M489.5 1392.55 2185.5 1392.55M489.5 1200.54 2185.5 1200.54M489.5 1009.5 2185.5 1009.5" stroke="#D9D9D9" stroke-width="3.4375" stroke-linejoin="round" stroke-miterlimit="10" stroke-dasharray="13.75 10.3125" fill="none"/></g><g><path d="M701.523 1009.5 701.523 2159.5M913.53 1009.5 913.53 2159.5M1125.54 1009.5 1125.54 2159.5M1337.54 1009.5 1337.54 2159.5M1549.55 1009.5 1549.55 2159.5M1761.56 1009.5 1761.56 2159.5M1973.56 1009.5 1973.56 2159.5M2185.5 1009.5 2185.5 2159.5" stroke="#D9D9D9" stroke-width="3.4375" stroke-linejoin="round" stroke-miterlimit="10" stroke-dasharray="13.75 10.3125" fill="none"/></g><g><rect x="489.5" y="1009.5" width="1696" height="1150" stroke="#D9D9D9" stroke-width="3.4375" stroke-linejoin="round" stroke-miterlimit="10" fill="none"/></g><g><path d="M0 0 0.000360892 1150" stroke="#D9D9D9" stroke-width="3.4375" stroke-linejoin="round" stroke-miterlimit="10" fill="none" fill-rule="evenodd" transform="matrix(1 0 0 -1 489.5 2159.5)"/></g><g><path d="M489.5 2159.5 2185.5 2159.5" stroke="#D9D9D9" stroke-width="3.4375" stroke-linejoin="round" stroke-miterlimit="10" fill="none" fill-rule="evenodd"/></g><g><path d="M1893.42 1737.51C1893.42 1743.86 1888.27 1749.01 1881.92 1749.01 1875.57 1749.01 1870.42 1743.86 1870.42 1737.51 1870.42 1731.16 1875.57 1726.01 1881.92 1726.01 1888.27 1726.01 1893.42 1731.16 1893.42 1737.51Z" fill="#012537"/><path d="M1349.42 2002.51C1349.42 2008.86 1344.27 2014.01 1337.92 2014.01 1331.56 2014.01 1326.42 2008.86 1326.42 2002.51 1326.42 1996.16 1331.56 1991.01 1337.92 1991.01 1344.27 1991.01 1349.42 1996.16 1349.42 2002.51Z" fill="#012537"/><path d="M1731.42 1707.51C1731.42 1713.86 1726.27 1719.01 1719.92 1719.01 1713.56 1719.01 1708.42 1713.86 1708.42 1707.51 1708.42 1701.16 1713.56 1696.01 1719.92 1696.01 1726.27 1696.01 1731.42 1701.16 1731.42 1707.51Z" fill="#012537"/><path d="M1710.42 1580.51C1710.42 1586.86 1705.27 1592.01 1698.92 1592.01 1692.56 1592.01 1687.42 1586.86 1687.42 1580.51 1687.42 1574.16 1692.56 1569.01 1698.92 1569.01 1705.27 1569.01 1710.42 1574.16 1710.42 1580.51Z" fill="#012537"/><path d="M1427.42 1252.51C1427.42 1258.86 1422.27 1264.01 1415.92 1264.01 1409.57 1264.01 1404.42 1258.86 1404.42 1252.51 1404.42 1246.16 1409.57 1241.01 1415.92 1241.01 1422.27 1241.01 1427.42 1246.16 1427.42 1252.51Z" fill="#012537"/><path d="M1795.42 1515.51C1795.42 1521.86 1790.27 1527.01 1783.92 1527.01 1777.56 1527.01 1772.42 1521.86 1772.42 1515.51 1772.42 1509.16 1777.56 1504.01 1783.92 1504.01 1790.27 1504.01 1795.42 1509.16 1795.42 1515.51Z" fill="#012537"/><path d="M1766.42 1546.51C1766.42 1552.86 1761.27 1558.01 1754.92 1558.01 1748.56 1558.01 1743.42 1552.86 1743.42 1546.51 1743.42 1540.16 1748.56 1535.01 1754.92 1535.01 1761.27 1535.01 1766.42 1540.16 1766.42 1546.51Z" fill="#012537"/><path d="M1731.42 1170.51C1731.42 1176.86 1726.27 1182.01 1719.92 1182.01 1713.56 1182.01 1708.42 1176.86 1708.42 1170.51 1708.42 1164.16 1713.56 1159.01 1719.92 1159.01 1726.27 1159.01 1731.42 1164.16 1731.42 1170.51Z" fill="#012537"/></g><g><path d="M534.916 1024.01C534.916 1040.3 521.709 1053.51 505.416 1053.51 489.124 1053.51 475.917 1040.3 475.917 1024.01 475.917 1007.72 489.124 994.512 505.416 994.512 521.709 994.512 534.916 1007.72 534.916 1024.01Z" stroke="#ED7D31" stroke-width="3.4375" stroke-linejoin="round" stroke-miterlimit="10" fill="#ED7D31"/></g><g><path d="M1881.5 1737.5 2007.5 1771.5" stroke="#A6A6A6" stroke-width="3.4375" stroke-linejoin="round" stroke-miterlimit="10" fill="none"/></g><g><path d="M1718.5 1706.5 1567.5 1770.5" stroke="#A6A6A6" stroke-width="3.4375" stroke-linejoin="round" stroke-miterlimit="10" fill="none"/></g><g><path d="M1697.5 1580.5 1695.56 1591.5 1675.5 1591.5" stroke="#A6A6A6" stroke-width="3.4375" stroke-linejoin="round" stroke-miterlimit="10" fill="none"/></g><g><path d="M1782.5 1515.5 1784.56 1450.5 1805.5 1450.5" stroke="#A6A6A6" stroke-width="3.4375" stroke-linejoin="round" stroke-miterlimit="10" fill="none"/></g><g><path d="M1754.5 1545.5 1953.5 1581.5" stroke="#A6A6A6" stroke-width="3.4375" stroke-linejoin="round" stroke-miterlimit="10" fill="none"/></g><g><path d="M1718.5 1170.5 1825.5 1225.5" stroke="#A6A6A6" stroke-width="3.4375" stroke-linejoin="round" stroke-miterlimit="10" fill="none"/></g><g><text fill="#012537" font-family="Consolas,Consolas_MSFontService,sans-serif" font-weight="400" font-size="55" transform="matrix(1 0 0 1 1856.22 1829)">Mid</text></g><g><text fill="#012537" font-family="Consolas,Consolas_MSFontService,sans-serif" font-weight="400" font-size="55" transform="matrix(1 0 0 1 1946.97 1829)">-</text></g><g><text fill="#012537" font-family="Consolas,Consolas_MSFontService,sans-serif" font-weight="400" font-size="55" transform="matrix(1 0 0 1 1977.22 1829)">Market </text></g><g><text fill="#012537" font-family="Consolas,Consolas_MSFontService,sans-serif" font-weight="400" font-size="55" transform="matrix(1 0 0 1 1841.09 1893)">Corporate</text></g><g><text fill="#012537" font-family="Consolas,Consolas_MSFontService,sans-serif" font-weight="400" font-size="37" transform="matrix(1 0 0 1 2113.34 1876)">1,2</text></g><g><text fill="#012537" font-family="Consolas,Consolas_MSFontService,sans-serif" font-weight="400" font-size="55" transform="matrix(1 0 0 1 1376.4 2021)">Automobile</text></g><g><text fill="#012537" font-family="Consolas,Consolas_MSFontService,sans-serif" font-weight="400" font-size="37" transform="matrix(1 0 0 1 1678.9 2004)">4,5</text></g><g><text fill="#012537" font-family="Consolas,Consolas_MSFontService,sans-serif" font-weight="400" font-size="55" transform="matrix(1 0 0 1 1400.88 1829)">Retail Real </text></g><g><text fill="#012537" font-family="Consolas,Consolas_MSFontService,sans-serif" font-weight="400" font-size="55" transform="matrix(1 0 0 1 1468.1 1893)">Estate</text></g><g><text fill="#404040" font-family="Consolas,Consolas_MSFontService,sans-serif" font-weight="400" font-size="31" transform="matrix(1 0 0 1 1649.6 1879)">3</text></g><g><text fill="#012537" font-family="Consolas,Consolas_MSFontService,sans-serif" font-weight="400" font-size="55" transform="matrix(1 0 0 1 1328.82 1579)">Office Real </text></g><g><text fill="#012537" font-family="Consolas,Consolas_MSFontService,sans-serif" font-weight="400" font-size="55" transform="matrix(1 0 0 1 1396.04 1643)">Estate</text></g><g><text fill="#404040" font-family="Consolas,Consolas_MSFontService,sans-serif" font-weight="400" font-size="31" transform="matrix(1 0 0 1 1577.54 1629)">3</text></g><g><text fill="#012537" font-family="Consolas,Consolas_MSFontService,sans-serif" font-weight="400" font-size="55" transform="matrix(1 0 0 1 1277.66 1322)">Industrial </text></g><g><text fill="#012537" font-family="Consolas,Consolas_MSFontService,sans-serif" font-weight="400" font-size="55" transform="matrix(1 0 0 1 1252.45 1386)">Real Estate</text></g><g><text fill="#012537" font-family="Consolas,Consolas_MSFontService,sans-serif" font-weight="400" font-size="37" transform="matrix(1 0 0 1 1585.2 1369)">3</text></g><g><text fill="#012537" font-family="Consolas,Consolas_MSFontService,sans-serif" font-weight="400" font-size="55" transform="matrix(1 0 0 1 1827.73 1437)">Multifamily </text></g><g><text fill="#012537" font-family="Consolas,Consolas_MSFontService,sans-serif" font-weight="400" font-size="55" transform="matrix(1 0 0 1 1819.32 1501)">Real Estate</text></g><g><text fill="#404040" font-family="Consolas,Consolas_MSFontService,sans-serif" font-weight="400" font-size="31" transform="matrix(1 0 0 1 2152.07 1487)">3</text></g><g><text fill="#012537" font-family="Consolas,Consolas_MSFontService,sans-serif" font-weight="400" font-size="55" transform="matrix(1 0 0 1 1771.76 1640)">Lodging Real </text></g><g><text fill="#012537" font-family="Consolas,Consolas_MSFontService,sans-serif" font-weight="400" font-size="55" transform="matrix(1 0 0 1 1854.1 1704)">Estate</text></g><g><text fill="#404040" font-family="Consolas,Consolas_MSFontService,sans-serif" font-weight="400" font-size="31" transform="matrix(1 0 0 1 2035.6 1690)">3</text></g><g><text fill="#012537" font-family="Consolas,Consolas_MSFontService,sans-serif" font-weight="400" font-size="55" transform="matrix(1 0 0 1 1674.47 1284)">Other Real </text></g><g><text fill="#012537" font-family="Consolas,Consolas_MSFontService,sans-serif" font-weight="400" font-size="55" transform="matrix(1 0 0 1 1724.88 1348)">Estate</text></g><g><text fill="#012537" font-family="Consolas,Consolas_MSFontService,sans-serif" font-weight="400" font-size="37" transform="matrix(1 0 0 1 1906.38 1331)">3</text></g><g><path d="M505.5 1024.5 507.517 1111.5 528.5 1111.5" stroke="#A6A6A6" stroke-width="3.4375" stroke-linejoin="round" stroke-miterlimit="10" fill="none"/></g><g><text fill="#012537" font-family="Consolas,Consolas_MSFontService,sans-serif" font-weight="400" font-size="73" transform="matrix(1 0 0 1 541.877 1136)">Bitcoin</text></g><g><text fill="#012537" font-family="Consolas,Consolas_MSFontService,sans-serif" font-weight="400" font-size="49" transform="matrix(1 0 0 1 824.05 1114)">6</text></g><g><text fill="#595959" font-family="Consolas,Consolas_MSFontService,sans-serif" font-weight="400" font-size="46" transform="matrix(1 0 0 1 373.062 2172)">40%</text></g><g><text fill="#595959" font-family="Consolas,Consolas_MSFontService,sans-serif" font-weight="400" font-size="46" transform="matrix(1 0 0 1 373.062 1981)">50%</text></g><g><text fill="#595959" font-family="Consolas,Consolas_MSFontService,sans-serif" font-weight="400" font-size="46" transform="matrix(1 0 0 1 373.062 1789)">60%</text></g><g><text fill="#595959" font-family="Consolas,Consolas_MSFontService,sans-serif" font-weight="400" font-size="46" transform="matrix(1 0 0 1 373.062 1597)">70%</text></g><g><text fill="#595959" font-family="Consolas,Consolas_MSFontService,sans-serif" font-weight="400" font-size="46" transform="matrix(1 0 0 1 373.062 1406)">80%</text></g><g><text fill="#595959" font-family="Consolas,Consolas_MSFontService,sans-serif" font-weight="400" font-size="46" transform="matrix(1 0 0 1 373.062 1214)">90%</text></g><g><text fill="#595959" font-family="Consolas,Consolas_MSFontService,sans-serif" font-weight="400" font-size="46" transform="matrix(1 0 0 1 347.854 1022)">100%</text></g><g><text fill="#595959" font-family="Consolas,Consolas_MSFontService,sans-serif" font-weight="400" font-size="46" transform="matrix(1 0 0 1 476.974 2229)">0</text></g><g><text fill="#595959" font-family="Consolas,Consolas_MSFontService,sans-serif" font-weight="400" font-size="46" transform="matrix(1 0 0 1 688.939 2229)">3</text></g><g><text fill="#595959" font-family="Consolas,Consolas_MSFontService,sans-serif" font-weight="400" font-size="46" transform="matrix(1 0 0 1 900.905 2229)">6</text></g><g><text fill="#595959" font-family="Consolas,Consolas_MSFontService,sans-serif" font-weight="400" font-size="46" transform="matrix(1 0 0 1 1112.87 2229)">9</text></g><g><text fill="#595959" font-family="Consolas,Consolas_MSFontService,sans-serif" font-weight="400" font-size="46" transform="matrix(1 0 0 1 1312.23 2229)">12</text></g><g><text fill="#595959" font-family="Consolas,Consolas_MSFontService,sans-serif" font-weight="400" font-size="46" transform="matrix(1 0 0 1 1524.2 2229)">15</text></g><g><text fill="#595959" font-family="Consolas,Consolas_MSFontService,sans-serif" font-weight="400" font-size="46" transform="matrix(1 0 0 1 1736.16 2229)">18</text></g><g><text fill="#595959" font-family="Consolas,Consolas_MSFontService,sans-serif" font-weight="400" font-size="46" transform="matrix(1 0 0 1 1948.13 2229)">21</text></g><g><text fill="#595959" font-family="Consolas,Consolas_MSFontService,sans-serif" font-weight="400" font-size="46" transform="matrix(1 0 0 1 2160.09 2229)">24</text></g><g><text fill="#012537" font-family="Consolas,Consolas_MSFontService,sans-serif" font-weight="400" font-size="55" transform="matrix(6.12323e-17 -1 1 6.12323e-17 320.698 1781)">Recovery Rate</text></g><g><text fill="#012537" font-family="Consolas,Consolas_MSFontService,sans-serif" font-weight="400" font-size="55" transform="matrix(1 0 0 1 974.44 2306)">Resolution Time (Months)</text></g><g><text fill="#012537" font-family="Consolas,Consolas_MSFontService,sans-serif" font-weight="400" font-size="92" transform="matrix(1 0 0 1 631.947 928)">Lending Recovery Profile</text></g><text font-family="Consolas,Consolas_MSFontService,sans-serif" font-weight="400" font-size="46" transform="matrix(1 0 0 1 547.329 1185)">Custodied by </text><text font-family="Consolas,Consolas_MSFontService,sans-serif" font-weight="400" font-size="46" transform="matrix(1 0 0 1 547.329 1240)">Unchained</text></g></svg>