<svg width="1686" height="835" xmlns="http://www.w3.org/2000/svg" xmlns:xlink="http://www.w3.org/1999/xlink" overflow="hidden"><defs><clipPath id="clip0"><rect x="1943" y="932" width="1686" height="835"/></clipPath></defs><g clip-path="url(#clip0)" transform="translate(-1943 -932)"><path d="M1966.5 932.5 1966.5 1754.56" stroke="#D9D9D9" stroke-width="22.9167" stroke-miterlimit="8" fill="none" fill-rule="evenodd"/><path d="M3628.08 1755.25 1954.5 1751.5" stroke="#D9D9D9" stroke-width="22.9167" stroke-miterlimit="8" fill="none" fill-rule="evenodd"/><path d="M1979 1686C1979 1674.4 1988.4 1665 2000 1665 2011.6 1665 2021 1674.4 2021 1686 2021 1697.6 2011.6 1707 2000 1707 1988.4 1707 1979 1697.6 1979 1686Z" fill="#A53258" fill-rule="evenodd" fill-opacity="0.701961"/><path d="M2077 1556C2077 1544.4 2086.4 1535 2098 1535 2109.6 1535 2119 1544.4 2119 1556 2119 1567.6 2109.6 1577 2098 1577 2086.4 1577 2077 1567.6 2077 1556Z" fill="#A53258" fill-rule="evenodd" fill-opacity="0.701961"/><path d="M2212 1418C2212 1406.4 2221.4 1397 2233 1397 2244.6 1397 2254 1406.4 2254 1418 2254 1429.6 2244.6 1439 2233 1439 2221.4 1439 2212 1429.6 2212 1418Z" fill="#A53258" fill-rule="evenodd" fill-opacity="0.701961"/><path d="M0 82.5C-1.05034e-14 36.9365 36.9365-1.05034e-14 82.5-2.10067e-14 128.063-4.20134e-14 165 36.9365 165 82.5 165 128.063 128.063 165 82.5 165 36.9365 165-5.25168e-14 128.063 0 82.5Z" fill="#38A66B" fill-rule="evenodd" fill-opacity="0.8" transform="matrix(-1 0 0 1 2683 1059)"/><path d="M2816 1203C2816 1191.4 2825.4 1182 2837 1182 2848.6 1182 2858 1191.4 2858 1203 2858 1214.6 2848.6 1224 2837 1224 2825.4 1224 2816 1214.6 2816 1203Z" fill="#A53258" fill-rule="evenodd" fill-opacity="0.701961"/><path d="M3461 1125.5C3461 1113.63 3470.4 1104 3482 1104 3493.6 1104 3503 1113.63 3503 1125.5 3503 1137.37 3493.6 1147 3482 1147 3470.4 1147 3461 1137.37 3461 1125.5Z" fill="#A53258" fill-rule="evenodd" fill-opacity="0.701961"/><path d="M2454 1372C2454 1360.4 2463.4 1351 2475 1351 2486.6 1351 2496 1360.4 2496 1372 2496 1383.6 2486.6 1393 2475 1393 2463.4 1393 2454 1383.6 2454 1372Z" fill="#A53258" fill-rule="evenodd" fill-opacity="0.701961"/><path d="M3152 1249C3152 1237.4 3161.4 1228 3173 1228 3184.6 1228 3194 1237.4 3194 1249 3194 1260.6 3184.6 1270 3173 1270 3161.4 1270 3152 1260.6 3152 1249Z" fill="#A53258" fill-rule="evenodd" fill-opacity="0.701961"/><path d="M1994.5 1737.5C1995.26 1732.57 1996.03 1727.65 1997.94 1718.03 1999.85 1708.42 2000.99 1694.48 2005.96 1679.82 2010.92 1665.16 2019.32 1645.09 2027.72 1630.07 2036.13 1615.05 2044.91 1603.52 2056.37 1589.7 2067.82 1575.88 2081.38 1561.34 2096.47 1547.16 2111.55 1532.98 2130.45 1516.76 2146.88 1504.62 2163.3 1492.48 2177.43 1485.15 2194.99 1474.34 2212.56 1463.52 2231.66 1450.79 2252.28 1439.73 2272.9 1428.68 2296.01 1418.34 2318.73 1408.01 2341.45 1397.67 2364.75 1387.22 2388.62 1377.73 2412.48 1368.23 2431.58 1361.14 2461.94 1351.05 2492.3 1340.96 2533.93 1327.86 2570.78 1317.16 2607.63 1306.47 2644.87 1296.13 2683.06 1286.88 2721.25 1277.63 2753.52 1270.66 2799.92 1261.65 2846.32 1252.63 2907.61 1241.22 2961.46 1232.81 3015.31 1224.39 3069.34 1217.06 3123 1211.18 3176.66 1205.29 3230.31 1201.32 3283.4 1197.48 3336.48 1193.63 3386.32 1190.27 3441.5 1188.11 3496.69 1185.94 3614.5 1184.5 3614.5 1184.5L3614.5 1184.5 3614.5 1184.5" stroke="#A53258" stroke-width="20.625" stroke-miterlimit="8" stroke-dasharray="61.875 20.625" stroke-opacity="0.701961" fill="none" fill-rule="evenodd"/><path d="M1994.5 1667.5C1995.26 1661.51 1996.03 1655.53 1997.94 1643.84 1999.85 1632.16 2000.99 1615.22 2005.96 1597.41 2010.92 1579.59 2019.32 1555.21 2027.72 1536.96 2036.13 1518.7 2044.91 1504.68 2056.37 1487.89 2067.82 1471.1 2081.38 1453.43 2096.47 1436.2 2111.55 1418.97 2130.45 1399.25 2146.88 1384.51 2163.3 1369.76 2177.43 1360.85 2194.99 1347.71 2212.56 1334.57 2231.66 1319.09 2252.28 1305.65 2272.9 1292.22 2296.01 1279.66 2318.73 1267.1 2341.45 1254.55 2364.75 1241.84 2388.62 1230.31 2412.48 1218.77 2431.58 1210.15 2461.94 1197.89 2492.3 1185.62 2533.93 1169.71 2570.78 1156.71 2607.63 1143.71 2644.87 1131.16 2683.06 1119.91 2721.25 1108.67 2753.52 1100.2 2799.92 1089.25 2846.32 1078.3 2907.61 1064.42 2961.46 1054.2 3015.31 1043.98 3069.34 1035.07 3123 1027.92 3176.66 1020.76 3230.31 1015.94 3283.4 1011.27 3336.48 1006.6 3386.32 1002.51 3441.5 999.881 3496.69 997.252 3614.5 995.5 3614.5 995.5L3614.5 995.5 3614.5 995.5" stroke="#38A66B" stroke-width="28.6458" stroke-miterlimit="8" stroke-dasharray="85.9375 28.6458" stroke-opacity="0.701961" fill="none" fill-rule="evenodd"/></g></svg>