<svg width="100" height="24" viewBox="0 0 100 24" fill="none" xmlns="http://www.w3.org/2000/svg">
<g clip-path="url(#clip0_4402_14555)">
<path d="M97.5799 4.6579C98.8094 4.6579 99.8053 3.66155 99.8053 2.43149C99.8053 1.20143 98.8094 0.205078 97.5799 0.205078C96.3504 0.205078 95.3545 1.20143 95.3545 2.43149C95.3545 3.66155 96.3504 4.6579 97.5799 4.6579Z" fill="#46338A"/>
<path d="M44.1906 3.44824H39.7254V8.00767H37.5082V11.6118H39.7254V18.1413C39.7254 22.4547 42.127 23.7176 45.3914 23.7176C46.3156 23.7176 47.3627 23.5331 47.9774 23.3486V19.6523C47.4549 19.8368 46.8074 19.929 46.2848 19.929C44.8381 19.929 44.1906 19.3119 44.1906 17.8953V11.6118H47.9774V8.00767H44.1906V3.44824Z" fill="#46338A"/>
<path d="M56.1987 3.44824H51.7336V8.00767H49.5164V11.6118H51.7336V18.1413C51.7336 22.4547 54.1352 23.7176 57.3996 23.7176C58.3237 23.7176 59.3709 23.5331 59.9856 23.3486V19.6523C59.4631 19.8368 58.8155 19.929 58.293 19.929C56.8463 19.929 56.1987 19.3119 56.1987 17.8953V11.6118H59.9856V8.00767H56.1987V3.44824Z" fill="#46338A"/>
<path d="M69.5614 7.7002C65.9897 7.7002 62.541 9.27057 62.541 13.3072H66.9446C66.9446 11.7984 67.8996 10.966 69.4385 10.966C70.8237 10.966 71.8709 11.6138 71.8709 12.6901C71.8709 15.7099 62.0799 12.7824 62.0799 19.312C62.0799 22.3625 64.5737 23.7176 67.1291 23.7176C69.2541 23.7176 71.0389 22.9468 72.0246 21.0689V23.4101H76.336V12.8132C76.336 9.11682 73.1024 7.7002 69.5614 7.7002ZM71.9324 17.2803C71.9324 19.3448 70.3319 20.4231 68.4836 20.4231C67.4057 20.4231 66.543 19.9311 66.543 18.945C66.543 17.1573 69.8073 17.4361 71.9303 16.4808V17.2824L71.9324 17.2803Z" fill="#46338A"/>
<path d="M79.1619 23.4106H83.5819V14.1995H92.5696V10.2674H83.5819V4.28113H93.4037V0.381836H79.1619V23.4106Z" fill="#46338A"/>
<path d="M99.8053 8.00781H95.3545V23.4102H99.8053V8.00781Z" fill="#46338A"/>
<path d="M28.9426 7.7168C24.416 7.7168 21.1516 11.0134 21.1516 15.7265C21.1516 20.4397 24.416 23.7363 28.9426 23.7363C32.6291 23.7363 35.2582 22.0388 36.2766 18.8243H31.6987C31.2254 19.6586 30.3504 20.0707 29.0635 20.0707C27.0307 20.0707 25.7992 18.9924 25.4303 16.9587H36.668C36.6987 16.5589 36.7295 16.1571 36.7295 15.7265C36.7295 11.0134 33.4651 7.7168 28.9405 7.7168H28.9426ZM25.4631 14.3386C25.8319 12.3992 27.0635 11.3824 28.9426 11.3824C30.8217 11.3824 32.0533 12.3992 32.4221 14.3386H25.4631Z" fill="#46338A"/>
<path d="M16.8936 0.383789L11.7481 14.5274L6.74196 0.383789H5.48172L11.1088 16.2844L10.412 18.2033L4.10467 0.383789H2.84237L9.7727 19.9582V19.9602L9.07393 21.8812L1.46532 0.383789H0.205078L8.35467 23.4105H8.51655H9.61491H13.6313H14.8916H15.369L23.7461 0.383789H16.8936Z" fill="#46338A"/>
</g>
<defs>
<clipPath id="clip0_4402_14555">
<rect width="100" height="23.7812" fill="white"/>
</clipPath>
</defs>
</svg>